# xmcd
#
# Track frame offsets:
#	150
#	16736
#	31787
#	48776
#	64521
#	86941
#	103827
#	119256
#	138120
#	154893
#
# Disc length: 2318 seconds
# Revision: 0
# Processed by: cddbd v1.5.2PL0 Copyright (c) Steve Scherf et al.
# Submitted via: dBpowerAMP V12.0
#
DISCID=75090c0a
DTITLE=Collin Raye - Never Going Back
DYEAR=2009
DGENRE=Country
TTITLE0=Get Up In Jesus' Name
TTITLE1=The Only Jesus
TTITLE2=Mid-Life Chrysler
TTITLE3=You Get Me
TTITLE4=Never Going Back
TTITLE5=Take Care Of You
TTITLE6=The Cross
TTITLE7=She's With Me
TTITLE8=I Love You This Much
TTITLE9=Indescribable
EXTD=
EXTT0=
EXTT1=
EXTT2=
EXTT3=
EXTT4=
EXTT5=
EXTT6=
EXTT7=
EXTT8=
EXTT9=
PLAYORDER=
